<svg width="27" height="27" viewBox="0 0 27 27" fill="none" xmlns="http://www.w3.org/2000/svg">
<path fill-rule="evenodd" clip-rule="evenodd" d="M21 22.2181C23.4492 20.1091 25 16.9857 25 13.5C25 7.14873 19.8513 2 13.5 2C7.14873 2 2 7.14873 2 13.5C2 16.9857 3.55077 20.1091 6 22.2181V19C6 16.4451 7.91625 14.3378 10.3899 14.0368C8.94657 13.0455 8 11.3833 8 9.5C8 6.46243 10.4624 4 13.5 4C16.5376 4 19 6.46243 19 9.5C19 11.3833 18.0534 13.0455 16.6101 14.0368C19.0838 14.3378 21 16.4451 21 19V22.2181ZM20.5874 24.9922C24.4358 22.6138 27 18.3563 27 13.5C27 6.04416 20.9558 0 13.5 0C6.04416 0 0 6.04416 0 13.5C0 18.3563 2.56425 22.6138 6.41263 24.9922C6.41377 24.9948 6.4149 24.9974 6.41604 25H6.42532C8.48256 26.2683 10.9058 27 13.5 27C16.0942 27 18.5174 26.2683 20.5747 25H20.584C20.5851 24.9974 20.5862 24.9948 20.5874 24.9922ZM20 22.9881V19C20 16.7909 18.2091 15 16 15H13.5H11C8.79086 15 7 16.7909 7 19V22.9881C8.84908 24.2573 11.0878 25 13.5 25C15.9122 25 18.1509 24.2573 20 22.9881ZM13.5 14C15.9853 14 18 11.9853 18 9.5C18 7.01472 15.9853 5 13.5 5C11.0147 5 9 7.01472 9 9.5C9 11.9853 11.0147 14 13.5 14Z" fill="#C5C6E2"/>
</svg>
