<svg width="30" height="26" viewBox="0 0 30 26" fill="none" xmlns="http://www.w3.org/2000/svg">
<path fill-rule="evenodd" clip-rule="evenodd" d="M1 0C0.447715 0 0 0.447715 0 1C0 1.55228 0.447715 2 1 2H29C29.5523 2 30 1.55228 30 1C30 0.447715 29.5523 0 29 0H1ZM1 7.77332C0.447715 7.77332 0 8.22104 0 8.77332C0 9.32561 0.447715 9.77332 1 9.77332H29C29.5523 9.77332 30 9.32561 30 8.77332C30 8.22104 29.5523 7.77332 29 7.77332H1ZM0 16.5466C0 15.9943 0.447715 15.5466 1 15.5466H29C29.5523 15.5466 30 15.9943 30 16.5466C30 17.0989 29.5523 17.5466 29 17.5466H1C0.447715 17.5466 0 17.0989 0 16.5466ZM1 23.3199C0.447715 23.3199 0 23.7677 0 24.3199C0 24.8722 0.447715 25.3199 1 25.3199H29C29.5523 25.3199 30 24.8722 30 24.3199C30 23.7677 29.5523 23.3199 29 23.3199H1Z" fill="#C5C6E2"/>
</svg>
