<svg width="22" height="26" viewBox="0 0 22 26" fill="none" xmlns="http://www.w3.org/2000/svg">
<path fill-rule="evenodd" clip-rule="evenodd" d="M7.29602 10.5V6C7.29602 4.067 8.86302 2.5 10.796 2.5C12.729 2.5 14.296 4.067 14.296 6V10.5H7.29602ZM5.29602 10.5H2.00135C0.65652 10.5 -0.305051 11.8007 0.0892383 13.0864L3.46257 24.0864C3.7202 24.9265 4.49598 25.5 5.37468 25.5H16.2175C17.0962 25.5 17.872 24.9265 18.1296 24.0864L21.5029 13.0864C21.8972 11.8007 20.9356 10.5 19.5908 10.5H16.296V6C16.296 2.96243 13.8336 0.5 10.796 0.5C7.75845 0.5 5.29602 2.96243 5.29602 6V10.5Z" fill="#C5C6E2"/>
</svg>
