<svg width="27" height="24" viewBox="0 0 27 24" fill="none" xmlns="http://www.w3.org/2000/svg">
<mask id="path-1-inside-1_38_4" fill="white">
<path fill-rule="evenodd" clip-rule="evenodd" d="M24.0043 2.25207C21.0015 -0.750693 16.1331 -0.750688 13.1303 2.25207L13.1282 2.25424L13.126 2.2521C10.1233 -0.750661 5.25483 -0.750663 2.25207 2.2521C-0.750693 5.25486 -0.750688 10.1233 2.25207 13.1261L13.126 24L13.1282 23.9979L13.1303 24L24.0043 13.126C27.0071 10.1233 27.0071 5.25483 24.0043 2.25207Z"/>
</mask>
<path d="M13.1303 2.25207L11.009 0.130754L11.009 0.130754L13.1303 2.25207ZM24.0043 2.25207L21.883 4.37339L21.883 4.37339L24.0043 2.25207ZM13.1282 2.25424L11.0068 4.37556L13.1282 6.49688L15.2495 4.37556L13.1282 2.25424ZM13.126 2.2521L11.0047 4.37342L11.0047 4.37342L13.126 2.2521ZM2.25207 2.2521L4.37339 4.37342L4.37339 4.37342L2.25207 2.2521ZM2.25207 13.1261L0.130754 15.2474L0.130754 15.2474L2.25207 13.1261ZM13.126 24L11.0047 26.1213L13.126 28.2427L15.2474 26.1213L13.126 24ZM13.1282 23.9979L15.249 21.8761L13.1277 19.7557L11.0069 21.8765L13.1282 23.9979ZM13.1303 24L11.0095 26.1218L13.1308 28.2422L15.2517 26.1213L13.1303 24ZM24.0043 13.126L26.1256 15.2474L26.1256 15.2474L24.0043 13.126ZM15.2516 4.3734C17.0828 2.5422 20.0518 2.5422 21.883 4.37339L26.1256 0.130749C21.9513 -4.04359 15.1833 -4.04358 11.009 0.130754L15.2516 4.3734ZM15.2495 4.37556L15.2516 4.37339L11.009 0.130754L11.0068 0.132915L15.2495 4.37556ZM11.0047 4.37342L11.0068 4.37556L15.2495 0.132915L15.2474 0.130782L11.0047 4.37342ZM4.37339 4.37342C6.20458 2.54223 9.17352 2.54223 11.0047 4.37342L15.2474 0.130782C11.073 -4.04355 4.30509 -4.04356 0.130749 0.13078L4.37339 4.37342ZM4.37339 11.0047C2.5422 9.17356 2.5422 6.20461 4.37339 4.37342L0.130749 0.130779C-4.04359 4.30512 -4.04358 11.0731 0.130754 15.2474L4.37339 11.0047ZM15.2474 21.8787L4.37339 11.0047L0.130754 15.2474L11.0047 26.1213L15.2474 21.8787ZM11.0069 21.8765L11.0047 21.8787L15.2474 26.1213L15.2495 26.1192L11.0069 21.8765ZM15.2512 21.8782L15.249 21.8761L11.0074 26.1197L11.0095 26.1218L15.2512 21.8782ZM21.883 11.0047L11.009 21.8787L15.2517 26.1213L26.1256 15.2474L21.883 11.0047ZM21.883 4.37339C23.7142 6.20458 23.7142 9.17352 21.883 11.0047L26.1256 15.2474C30.2999 11.073 30.3 4.30509 26.1256 0.130749L21.883 4.37339Z" fill="#C5C6E2" mask="url(#path-1-inside-1_38_4)"/>
</svg>
