<svg width="24" height="26" viewBox="0 0 24 26" fill="none" xmlns="http://www.w3.org/2000/svg">
<path fill-rule="evenodd" clip-rule="evenodd" d="M15 8.5C15 12.0899 12.0899 15 8.5 15C4.91015 15 2 12.0899 2 8.5C2 4.91015 4.91015 2 8.5 2C12.0899 2 15 4.91015 15 8.5ZM12.9283 15.7568C11.6387 16.5455 10.1224 17 8.5 17C3.80558 17 0 13.1944 0 8.5C0 3.80558 3.80558 0 8.5 0C13.1944 0 17 3.80558 17 8.5C17 10.8472 16.0486 12.9722 14.5104 14.5104L23.4235 23.4235C23.814 23.814 23.814 24.4472 23.4235 24.8377C23.033 25.2282 22.3998 25.2282 22.0093 24.8377L12.9283 15.7568Z" fill="#C5C6E2"/>
</svg>
